<mxfile host="Electron" agent="Mozilla/5.0 (X11; Linux x86_64) AppleWebKit/537.36 (KHTML, like Gecko) draw.io/26.0.4 Chrome/128.0.6613.186 Electron/32.2.5 Safari/537.36" version="26.0.4" pages="2">
  <diagram id="nxtmkk11nffrUQ9Sai2i" name="old">
    <mxGraphModel dx="1388" dy="838" grid="1" gridSize="10" guides="1" tooltips="1" connect="1" arrows="1" fold="1" page="1" pageScale="1" pageWidth="1654" pageHeight="1169" math="0" shadow="0">
      <root>
        <mxCell id="0" />
        <mxCell id="1" style="" parent="0" />
        <mxCell id="Are9pTkQcVc5aUIFTI67-3" value="ActivityProvider.main" style="shape=umlLifeline;perimeter=lifelinePerimeter;whiteSpace=wrap;html=1;container=1;dropTarget=0;collapsible=0;recursiveResize=0;outlineConnect=0;portConstraint=eastwest;newEdgeStyle={&quot;edgeStyle&quot;:&quot;elbowEdgeStyle&quot;,&quot;elbow&quot;:&quot;vertical&quot;,&quot;curved&quot;:0,&quot;rounded&quot;:0};" parent="1" vertex="1">
          <mxGeometry width="150" height="640" as="geometry" />
        </mxCell>
        <mxCell id="Are9pTkQcVc5aUIFTI67-5" value="AbstractControllerFactory" style="shape=umlLifeline;perimeter=lifelinePerimeter;whiteSpace=wrap;html=1;container=1;dropTarget=0;collapsible=0;recursiveResize=0;outlineConnect=0;portConstraint=eastwest;newEdgeStyle={&quot;edgeStyle&quot;:&quot;elbowEdgeStyle&quot;,&quot;elbow&quot;:&quot;vertical&quot;,&quot;curved&quot;:0,&quot;rounded&quot;:0};" parent="1" vertex="1">
          <mxGeometry x="200" width="150" height="640" as="geometry" />
        </mxCell>
        <mxCell id="bkv_ABoKc8MnhsbmoALr-54" value="" style="html=1;points=[[0,0,0,0,5],[0,1,0,0,-5],[1,0,0,0,5],[1,1,0,0,-5]];perimeter=orthogonalPerimeter;outlineConnect=0;targetShapes=umlLifeline;portConstraint=eastwest;newEdgeStyle={&quot;curved&quot;:0,&quot;rounded&quot;:0};" parent="Are9pTkQcVc5aUIFTI67-5" vertex="1">
          <mxGeometry x="70" y="311" width="10" height="80" as="geometry" />
        </mxCell>
        <mxCell id="bkv_ABoKc8MnhsbmoALr-6" value="ConfigurationControllerFactory" style="shape=umlLifeline;perimeter=lifelinePerimeter;whiteSpace=wrap;html=1;container=1;dropTarget=0;collapsible=0;recursiveResize=0;outlineConnect=0;portConstraint=eastwest;newEdgeStyle={&quot;edgeStyle&quot;:&quot;elbowEdgeStyle&quot;,&quot;elbow&quot;:&quot;vertical&quot;,&quot;curved&quot;:0,&quot;rounded&quot;:0};" parent="1" vertex="1">
          <mxGeometry x="400" width="180" height="640" as="geometry" />
        </mxCell>
        <mxCell id="bkv_ABoKc8MnhsbmoALr-26" value="ConfigurationServiceFactory" style="shape=umlLifeline;perimeter=lifelinePerimeter;whiteSpace=wrap;html=1;container=1;dropTarget=0;collapsible=0;recursiveResize=0;outlineConnect=0;portConstraint=eastwest;newEdgeStyle={&quot;edgeStyle&quot;:&quot;elbowEdgeStyle&quot;,&quot;elbow&quot;:&quot;vertical&quot;,&quot;curved&quot;:0,&quot;rounded&quot;:0};" parent="1" vertex="1">
          <mxGeometry x="827" width="171" height="640" as="geometry" />
        </mxCell>
        <mxCell id="bkv_ABoKc8MnhsbmoALr-31" value="ConfigurationServiceImpl" style="shape=umlLifeline;perimeter=lifelinePerimeter;whiteSpace=wrap;html=1;container=1;dropTarget=0;collapsible=0;recursiveResize=0;outlineConnect=0;portConstraint=eastwest;newEdgeStyle={&quot;edgeStyle&quot;:&quot;elbowEdgeStyle&quot;,&quot;elbow&quot;:&quot;vertical&quot;,&quot;curved&quot;:0,&quot;rounded&quot;:0};" parent="1" vertex="1">
          <mxGeometry x="1050" width="150" height="640" as="geometry" />
        </mxCell>
        <mxCell id="bkv_ABoKc8MnhsbmoALr-51" value="" style="html=1;points=[[0,0,0,0,5],[0,1,0,0,-5],[1,0,0,0,5],[1,1,0,0,-5]];perimeter=orthogonalPerimeter;outlineConnect=0;targetShapes=umlLifeline;portConstraint=eastwest;newEdgeStyle={&quot;curved&quot;:0,&quot;rounded&quot;:0};" parent="bkv_ABoKc8MnhsbmoALr-31" vertex="1">
          <mxGeometry x="70" y="94" width="10" height="56" as="geometry" />
        </mxCell>
        <mxCell id="bkv_ABoKc8MnhsbmoALr-55" value="new()" style="html=1;verticalAlign=bottom;endArrow=block;curved=0;rounded=0;entryX=0;entryY=0;entryDx=0;entryDy=5;" parent="1" target="bkv_ABoKc8MnhsbmoALr-54" edge="1">
          <mxGeometry relative="1" as="geometry">
            <mxPoint x="74.66666666666674" y="316" as="sourcePoint" />
          </mxGeometry>
        </mxCell>
        <mxCell id="bkv_ABoKc8MnhsbmoALr-56" value="Instance" style="html=1;verticalAlign=bottom;endArrow=open;dashed=1;endSize=8;curved=0;rounded=0;exitX=0;exitY=1;exitDx=0;exitDy=-5;" parent="1" source="bkv_ABoKc8MnhsbmoALr-54" edge="1">
          <mxGeometry x="0.1429" y="-5" relative="1" as="geometry">
            <mxPoint x="74.66666666666674" y="386" as="targetPoint" />
            <mxPoint as="offset" />
          </mxGeometry>
        </mxCell>
        <mxCell id="y82vWZaBjgudPg-XgAhm-4" value="" style="html=1;points=[[0,0,0,0,5],[0,1,0,0,-5],[1,0,0,0,5],[1,1,0,0,-5]];perimeter=orthogonalPerimeter;outlineConnect=0;targetShapes=umlLifeline;portConstraint=eastwest;newEdgeStyle={&quot;curved&quot;:0,&quot;rounded&quot;:0};" parent="1" vertex="1">
          <mxGeometry x="485" y="160" width="10" height="100" as="geometry" />
        </mxCell>
        <mxCell id="y82vWZaBjgudPg-XgAhm-5" value="new(ConfigurationService)" style="html=1;verticalAlign=bottom;endArrow=block;curved=0;rounded=0;entryX=0;entryY=0;entryDx=0;entryDy=5;" parent="1" source="Are9pTkQcVc5aUIFTI67-5" edge="1">
          <mxGeometry relative="1" as="geometry">
            <mxPoint x="415" y="171" as="sourcePoint" />
            <mxPoint x="485" y="171" as="targetPoint" />
          </mxGeometry>
        </mxCell>
        <mxCell id="y82vWZaBjgudPg-XgAhm-6" value="Instance" style="html=1;verticalAlign=bottom;endArrow=open;dashed=1;endSize=8;curved=0;rounded=0;exitX=0;exitY=1;exitDx=0;exitDy=-5;" parent="1" edge="1">
          <mxGeometry relative="1" as="geometry">
            <mxPoint x="274.66666666666674" y="242" as="targetPoint" />
            <mxPoint x="485" y="242" as="sourcePoint" />
          </mxGeometry>
        </mxCell>
        <mxCell id="4qp-woGcKjIBJxR7sGeO-1" value="ConfigurationController" style="shape=umlLifeline;perimeter=lifelinePerimeter;whiteSpace=wrap;html=1;container=1;dropTarget=0;collapsible=0;recursiveResize=0;outlineConnect=0;portConstraint=eastwest;newEdgeStyle={&quot;edgeStyle&quot;:&quot;elbowEdgeStyle&quot;,&quot;elbow&quot;:&quot;vertical&quot;,&quot;curved&quot;:0,&quot;rounded&quot;:0};" parent="1" vertex="1">
          <mxGeometry x="630" width="150" height="640" as="geometry" />
        </mxCell>
        <mxCell id="4qp-woGcKjIBJxR7sGeO-3" value="" style="html=1;points=[[0,0,0,0,5],[0,1,0,0,-5],[1,0,0,0,5],[1,1,0,0,-5]];perimeter=orthogonalPerimeter;outlineConnect=0;targetShapes=umlLifeline;portConstraint=eastwest;newEdgeStyle={&quot;curved&quot;:0,&quot;rounded&quot;:0};" parent="1" vertex="1">
          <mxGeometry x="700" y="180" width="10" height="50" as="geometry" />
        </mxCell>
        <mxCell id="4qp-woGcKjIBJxR7sGeO-4" value="new(ConfigurationService)" style="html=1;verticalAlign=bottom;endArrow=block;curved=0;rounded=0;entryX=0;entryY=0;entryDx=0;entryDy=5;" parent="1" source="y82vWZaBjgudPg-XgAhm-4" edge="1">
          <mxGeometry relative="1" as="geometry">
            <mxPoint x="630" y="191" as="sourcePoint" />
            <mxPoint x="700" y="191" as="targetPoint" />
          </mxGeometry>
        </mxCell>
        <mxCell id="4qp-woGcKjIBJxR7sGeO-5" value="Instance" style="html=1;verticalAlign=bottom;endArrow=open;dashed=1;endSize=8;curved=0;rounded=0;exitX=0;exitY=1;exitDx=0;exitDy=-5;" parent="1" target="y82vWZaBjgudPg-XgAhm-4" edge="1">
          <mxGeometry relative="1" as="geometry">
            <mxPoint x="630" y="220" as="targetPoint" />
            <mxPoint x="700" y="220" as="sourcePoint" />
          </mxGeometry>
        </mxCell>
        <mxCell id="bkv_ABoKc8MnhsbmoALr-42" value="l1" parent="0" />
        <mxCell id="bkv_ABoKc8MnhsbmoALr-43" value="Inicialização JVM" style="shape=umlFrame;whiteSpace=wrap;html=1;pointerEvents=0;width=80;height=30;" parent="bkv_ABoKc8MnhsbmoALr-42" vertex="1">
          <mxGeometry x="140" y="60" width="1010" height="220" as="geometry" />
        </mxCell>
        <mxCell id="bkv_ABoKc8MnhsbmoALr-47" value="Criar&amp;nbsp;ControllerType.Configuration" style="shape=umlFrame;whiteSpace=wrap;html=1;pointerEvents=0;width=200;height=30;" parent="bkv_ABoKc8MnhsbmoALr-42" vertex="1">
          <mxGeometry x="10" y="431" width="510" height="170" as="geometry" />
        </mxCell>
        <mxCell id="bkv_ABoKc8MnhsbmoALr-48" value="" style="html=1;points=[[0,0,0,0,5],[0,1,0,0,-5],[1,0,0,0,5],[1,1,0,0,-5]];perimeter=orthogonalPerimeter;outlineConnect=0;targetShapes=umlLifeline;portConstraint=eastwest;newEdgeStyle={&quot;curved&quot;:0,&quot;rounded&quot;:0};" parent="bkv_ABoKc8MnhsbmoALr-42" vertex="1">
          <mxGeometry x="907" y="80" width="10" height="90" as="geometry" />
        </mxCell>
        <mxCell id="bkv_ABoKc8MnhsbmoALr-49" value="new()" style="html=1;verticalAlign=bottom;endArrow=block;curved=0;rounded=0;entryX=0;entryY=0;entryDx=0;entryDy=5;" parent="bkv_ABoKc8MnhsbmoALr-42" source="Are9pTkQcVc5aUIFTI67-5" target="bkv_ABoKc8MnhsbmoALr-48" edge="1">
          <mxGeometry x="-0.5157" y="5" relative="1" as="geometry">
            <mxPoint x="280" y="90" as="sourcePoint" />
            <mxPoint as="offset" />
          </mxGeometry>
        </mxCell>
        <mxCell id="bkv_ABoKc8MnhsbmoALr-50" value="Instance" style="html=1;verticalAlign=bottom;endArrow=open;dashed=1;endSize=8;curved=0;rounded=0;" parent="bkv_ABoKc8MnhsbmoALr-42" source="bkv_ABoKc8MnhsbmoALr-48" edge="1">
          <mxGeometry x="-0.6326" y="-9" relative="1" as="geometry">
            <mxPoint x="274.54761904761926" y="149.0000000000001" as="targetPoint" />
            <mxPoint x="710" y="149.0000000000001" as="sourcePoint" />
            <mxPoint as="offset" />
          </mxGeometry>
        </mxCell>
        <mxCell id="bkv_ABoKc8MnhsbmoALr-52" value="new()" style="html=1;verticalAlign=bottom;endArrow=block;curved=0;rounded=0;entryX=0;entryY=0;entryDx=0;entryDy=5;" parent="bkv_ABoKc8MnhsbmoALr-42" source="bkv_ABoKc8MnhsbmoALr-48" target="bkv_ABoKc8MnhsbmoALr-51" edge="1">
          <mxGeometry relative="1" as="geometry">
            <mxPoint x="1047" y="99" as="sourcePoint" />
          </mxGeometry>
        </mxCell>
        <mxCell id="bkv_ABoKc8MnhsbmoALr-53" value="Instance" style="html=1;verticalAlign=bottom;endArrow=open;dashed=1;endSize=8;curved=0;rounded=0;" parent="bkv_ABoKc8MnhsbmoALr-42" source="bkv_ABoKc8MnhsbmoALr-51" edge="1">
          <mxGeometry x="-0.0041" relative="1" as="geometry">
            <mxPoint x="917" y="136" as="targetPoint" />
            <mxPoint x="1117" y="136" as="sourcePoint" />
            <mxPoint as="offset" />
          </mxGeometry>
        </mxCell>
        <mxCell id="bkv_ABoKc8MnhsbmoALr-57" value="" style="html=1;points=[[0,0,0,0,5],[0,1,0,0,-5],[1,0,0,0,5],[1,1,0,0,-5]];perimeter=orthogonalPerimeter;outlineConnect=0;targetShapes=umlLifeline;portConstraint=eastwest;newEdgeStyle={&quot;curved&quot;:0,&quot;rounded&quot;:0};" parent="bkv_ABoKc8MnhsbmoALr-42" vertex="1">
          <mxGeometry x="270" y="481" width="10" height="80" as="geometry" />
        </mxCell>
        <mxCell id="bkv_ABoKc8MnhsbmoALr-58" value="createController(ControllerType.Configuration)" style="html=1;verticalAlign=bottom;endArrow=block;curved=0;rounded=0;entryX=0;entryY=0;entryDx=0;entryDy=5;" parent="bkv_ABoKc8MnhsbmoALr-42" target="bkv_ABoKc8MnhsbmoALr-57" edge="1">
          <mxGeometry x="0.0756" y="5" relative="1" as="geometry">
            <mxPoint x="74.66666666666674" y="486" as="sourcePoint" />
            <mxPoint as="offset" />
          </mxGeometry>
        </mxCell>
        <mxCell id="bkv_ABoKc8MnhsbmoALr-59" value="Instance" style="html=1;verticalAlign=bottom;endArrow=open;dashed=1;endSize=8;curved=0;rounded=0;exitX=0;exitY=1;exitDx=0;exitDy=-5;" parent="bkv_ABoKc8MnhsbmoALr-42" source="bkv_ABoKc8MnhsbmoALr-57" edge="1">
          <mxGeometry relative="1" as="geometry">
            <mxPoint x="74.66666666666674" y="556" as="targetPoint" />
          </mxGeometry>
        </mxCell>
        <mxCell id="bkv_ABoKc8MnhsbmoALr-60" value="" style="html=1;points=[[0,0,0,0,5],[0,1,0,0,-5],[1,0,0,0,5],[1,1,0,0,-5]];perimeter=orthogonalPerimeter;outlineConnect=0;targetShapes=umlLifeline;portConstraint=eastwest;newEdgeStyle={&quot;curved&quot;:0,&quot;rounded&quot;:0};" parent="bkv_ABoKc8MnhsbmoALr-42" vertex="1">
          <mxGeometry x="485" y="503" width="10" height="38" as="geometry" />
        </mxCell>
        <mxCell id="bkv_ABoKc8MnhsbmoALr-61" value="create()" style="html=1;verticalAlign=bottom;endArrow=block;curved=0;rounded=0;entryX=0;entryY=0;entryDx=0;entryDy=5;" parent="bkv_ABoKc8MnhsbmoALr-42" source="bkv_ABoKc8MnhsbmoALr-57" target="bkv_ABoKc8MnhsbmoALr-60" edge="1">
          <mxGeometry relative="1" as="geometry">
            <mxPoint x="415" y="508" as="sourcePoint" />
          </mxGeometry>
        </mxCell>
        <mxCell id="bkv_ABoKc8MnhsbmoALr-62" value="Instance" style="html=1;verticalAlign=bottom;endArrow=open;dashed=1;endSize=8;curved=0;rounded=0;exitX=0;exitY=1;exitDx=0;exitDy=-5;" parent="bkv_ABoKc8MnhsbmoALr-42" target="bkv_ABoKc8MnhsbmoALr-57" edge="1">
          <mxGeometry relative="1" as="geometry">
            <mxPoint x="415" y="537" as="targetPoint" />
            <mxPoint x="485" y="537" as="sourcePoint" />
          </mxGeometry>
        </mxCell>
      </root>
    </mxGraphModel>
  </diagram>
  <diagram name="new" id="ZdcXSSgIa1j-pbHRzar3">
    <mxGraphModel dx="1388" dy="838" grid="1" gridSize="10" guides="1" tooltips="1" connect="1" arrows="1" fold="1" page="1" pageScale="1" pageWidth="1654" pageHeight="1169" math="0" shadow="0">
      <root>
        <mxCell id="U378pDZOhtfgbl5MsKW6-0" />
        <mxCell id="U378pDZOhtfgbl5MsKW6-1" style="" parent="U378pDZOhtfgbl5MsKW6-0" />
        <mxCell id="U378pDZOhtfgbl5MsKW6-2" value="ActivityProvider.main" style="shape=umlLifeline;perimeter=lifelinePerimeter;whiteSpace=wrap;html=1;container=1;dropTarget=0;collapsible=0;recursiveResize=0;outlineConnect=0;portConstraint=eastwest;newEdgeStyle={&quot;edgeStyle&quot;:&quot;elbowEdgeStyle&quot;,&quot;elbow&quot;:&quot;vertical&quot;,&quot;curved&quot;:0,&quot;rounded&quot;:0};" parent="U378pDZOhtfgbl5MsKW6-1" vertex="1">
          <mxGeometry width="150" height="640" as="geometry" />
        </mxCell>
        <mxCell id="U378pDZOhtfgbl5MsKW6-3" value="AbstractControllerFactory" style="shape=umlLifeline;perimeter=lifelinePerimeter;whiteSpace=wrap;html=1;container=1;dropTarget=0;collapsible=0;recursiveResize=0;outlineConnect=0;portConstraint=eastwest;newEdgeStyle={&quot;edgeStyle&quot;:&quot;elbowEdgeStyle&quot;,&quot;elbow&quot;:&quot;vertical&quot;,&quot;curved&quot;:0,&quot;rounded&quot;:0};" parent="U378pDZOhtfgbl5MsKW6-1" vertex="1">
          <mxGeometry x="200" width="150" height="640" as="geometry" />
        </mxCell>
        <mxCell id="U378pDZOhtfgbl5MsKW6-4" value="" style="html=1;points=[[0,0,0,0,5],[0,1,0,0,-5],[1,0,0,0,5],[1,1,0,0,-5]];perimeter=orthogonalPerimeter;outlineConnect=0;targetShapes=umlLifeline;portConstraint=eastwest;newEdgeStyle={&quot;curved&quot;:0,&quot;rounded&quot;:0};" parent="U378pDZOhtfgbl5MsKW6-3" vertex="1">
          <mxGeometry x="70" y="311" width="10" height="80" as="geometry" />
        </mxCell>
        <mxCell id="U378pDZOhtfgbl5MsKW6-5" value="ConfigurationControllerFactory" style="shape=umlLifeline;perimeter=lifelinePerimeter;whiteSpace=wrap;html=1;container=1;dropTarget=0;collapsible=0;recursiveResize=0;outlineConnect=0;portConstraint=eastwest;newEdgeStyle={&quot;edgeStyle&quot;:&quot;elbowEdgeStyle&quot;,&quot;elbow&quot;:&quot;vertical&quot;,&quot;curved&quot;:0,&quot;rounded&quot;:0};" parent="U378pDZOhtfgbl5MsKW6-1" vertex="1">
          <mxGeometry x="400" width="180" height="640" as="geometry" />
        </mxCell>
        <mxCell id="U378pDZOhtfgbl5MsKW6-9" value="new()" style="html=1;verticalAlign=bottom;endArrow=block;curved=0;rounded=0;entryX=0;entryY=0;entryDx=0;entryDy=5;" parent="U378pDZOhtfgbl5MsKW6-1" target="U378pDZOhtfgbl5MsKW6-4" edge="1">
          <mxGeometry relative="1" as="geometry">
            <mxPoint x="74.66666666666674" y="316" as="sourcePoint" />
          </mxGeometry>
        </mxCell>
        <mxCell id="U378pDZOhtfgbl5MsKW6-10" value="Instance" style="html=1;verticalAlign=bottom;endArrow=open;dashed=1;endSize=8;curved=0;rounded=0;exitX=0;exitY=1;exitDx=0;exitDy=-5;" parent="U378pDZOhtfgbl5MsKW6-1" source="U378pDZOhtfgbl5MsKW6-4" edge="1">
          <mxGeometry x="0.1429" y="-5" relative="1" as="geometry">
            <mxPoint x="74.66666666666674" y="386" as="targetPoint" />
            <mxPoint as="offset" />
          </mxGeometry>
        </mxCell>
        <mxCell id="U378pDZOhtfgbl5MsKW6-11" value="" style="html=1;points=[[0,0,0,0,5],[0,1,0,0,-5],[1,0,0,0,5],[1,1,0,0,-5]];perimeter=orthogonalPerimeter;outlineConnect=0;targetShapes=umlLifeline;portConstraint=eastwest;newEdgeStyle={&quot;curved&quot;:0,&quot;rounded&quot;:0};" parent="U378pDZOhtfgbl5MsKW6-1" vertex="1">
          <mxGeometry x="485" y="160" width="10" height="100" as="geometry" />
        </mxCell>
        <mxCell id="U378pDZOhtfgbl5MsKW6-12" value="new()" style="html=1;verticalAlign=bottom;endArrow=block;curved=0;rounded=0;entryX=0;entryY=0;entryDx=0;entryDy=5;" parent="U378pDZOhtfgbl5MsKW6-1" source="U378pDZOhtfgbl5MsKW6-3" edge="1">
          <mxGeometry relative="1" as="geometry">
            <mxPoint x="415" y="171" as="sourcePoint" />
            <mxPoint x="485" y="171" as="targetPoint" />
          </mxGeometry>
        </mxCell>
        <mxCell id="U378pDZOhtfgbl5MsKW6-13" value="Instance" style="html=1;verticalAlign=bottom;endArrow=open;dashed=1;endSize=8;curved=0;rounded=0;exitX=0;exitY=1;exitDx=0;exitDy=-5;" parent="U378pDZOhtfgbl5MsKW6-1" edge="1">
          <mxGeometry relative="1" as="geometry">
            <mxPoint x="274.66666666666674" y="242" as="targetPoint" />
            <mxPoint x="485" y="242" as="sourcePoint" />
          </mxGeometry>
        </mxCell>
        <mxCell id="U378pDZOhtfgbl5MsKW6-14" value="ConfigurationController" style="shape=umlLifeline;perimeter=lifelinePerimeter;whiteSpace=wrap;html=1;container=1;dropTarget=0;collapsible=0;recursiveResize=0;outlineConnect=0;portConstraint=eastwest;newEdgeStyle={&quot;edgeStyle&quot;:&quot;elbowEdgeStyle&quot;,&quot;elbow&quot;:&quot;vertical&quot;,&quot;curved&quot;:0,&quot;rounded&quot;:0};" parent="U378pDZOhtfgbl5MsKW6-1" vertex="1">
          <mxGeometry x="630" width="150" height="640" as="geometry" />
        </mxCell>
        <mxCell id="U378pDZOhtfgbl5MsKW6-15" value="" style="html=1;points=[[0,0,0,0,5],[0,1,0,0,-5],[1,0,0,0,5],[1,1,0,0,-5]];perimeter=orthogonalPerimeter;outlineConnect=0;targetShapes=umlLifeline;portConstraint=eastwest;newEdgeStyle={&quot;curved&quot;:0,&quot;rounded&quot;:0};" parent="U378pDZOhtfgbl5MsKW6-1" vertex="1">
          <mxGeometry x="700" y="180" width="10" height="50" as="geometry" />
        </mxCell>
        <mxCell id="U378pDZOhtfgbl5MsKW6-16" value="new()" style="html=1;verticalAlign=bottom;endArrow=block;curved=0;rounded=0;entryX=0;entryY=0;entryDx=0;entryDy=5;" parent="U378pDZOhtfgbl5MsKW6-1" source="U378pDZOhtfgbl5MsKW6-11" edge="1">
          <mxGeometry relative="1" as="geometry">
            <mxPoint x="630" y="191" as="sourcePoint" />
            <mxPoint x="700" y="191" as="targetPoint" />
          </mxGeometry>
        </mxCell>
        <mxCell id="U378pDZOhtfgbl5MsKW6-17" value="Instance" style="html=1;verticalAlign=bottom;endArrow=open;dashed=1;endSize=8;curved=0;rounded=0;exitX=0;exitY=1;exitDx=0;exitDy=-5;" parent="U378pDZOhtfgbl5MsKW6-1" target="U378pDZOhtfgbl5MsKW6-11" edge="1">
          <mxGeometry relative="1" as="geometry">
            <mxPoint x="630" y="220" as="targetPoint" />
            <mxPoint x="700" y="220" as="sourcePoint" />
          </mxGeometry>
        </mxCell>
        <mxCell id="U378pDZOhtfgbl5MsKW6-18" value="l1" parent="U378pDZOhtfgbl5MsKW6-0" />
        <mxCell id="U378pDZOhtfgbl5MsKW6-19" value="Inicialização JVM" style="shape=umlFrame;whiteSpace=wrap;html=1;pointerEvents=0;width=80;height=30;" parent="U378pDZOhtfgbl5MsKW6-18" vertex="1">
          <mxGeometry x="140" y="60" width="660" height="220" as="geometry" />
        </mxCell>
        <mxCell id="U378pDZOhtfgbl5MsKW6-20" value="Criar&amp;nbsp;ControllerType.Configuration" style="shape=umlFrame;whiteSpace=wrap;html=1;pointerEvents=0;width=200;height=30;" parent="U378pDZOhtfgbl5MsKW6-18" vertex="1">
          <mxGeometry x="10" y="431" width="510" height="170" as="geometry" />
        </mxCell>
        <mxCell id="U378pDZOhtfgbl5MsKW6-26" value="" style="html=1;points=[[0,0,0,0,5],[0,1,0,0,-5],[1,0,0,0,5],[1,1,0,0,-5]];perimeter=orthogonalPerimeter;outlineConnect=0;targetShapes=umlLifeline;portConstraint=eastwest;newEdgeStyle={&quot;curved&quot;:0,&quot;rounded&quot;:0};" parent="U378pDZOhtfgbl5MsKW6-18" vertex="1">
          <mxGeometry x="270" y="481" width="10" height="80" as="geometry" />
        </mxCell>
        <mxCell id="U378pDZOhtfgbl5MsKW6-27" value="createController(ControllerType.Configuration)" style="html=1;verticalAlign=bottom;endArrow=block;curved=0;rounded=0;entryX=0;entryY=0;entryDx=0;entryDy=5;" parent="U378pDZOhtfgbl5MsKW6-18" target="U378pDZOhtfgbl5MsKW6-26" edge="1">
          <mxGeometry x="0.0756" y="5" relative="1" as="geometry">
            <mxPoint x="74.66666666666674" y="486" as="sourcePoint" />
            <mxPoint as="offset" />
          </mxGeometry>
        </mxCell>
        <mxCell id="U378pDZOhtfgbl5MsKW6-28" value="Instance" style="html=1;verticalAlign=bottom;endArrow=open;dashed=1;endSize=8;curved=0;rounded=0;exitX=0;exitY=1;exitDx=0;exitDy=-5;" parent="U378pDZOhtfgbl5MsKW6-18" source="U378pDZOhtfgbl5MsKW6-26" edge="1">
          <mxGeometry relative="1" as="geometry">
            <mxPoint x="74.66666666666674" y="556" as="targetPoint" />
          </mxGeometry>
        </mxCell>
        <mxCell id="U378pDZOhtfgbl5MsKW6-29" value="" style="html=1;points=[[0,0,0,0,5],[0,1,0,0,-5],[1,0,0,0,5],[1,1,0,0,-5]];perimeter=orthogonalPerimeter;outlineConnect=0;targetShapes=umlLifeline;portConstraint=eastwest;newEdgeStyle={&quot;curved&quot;:0,&quot;rounded&quot;:0};" parent="U378pDZOhtfgbl5MsKW6-18" vertex="1">
          <mxGeometry x="485" y="503" width="10" height="38" as="geometry" />
        </mxCell>
        <mxCell id="U378pDZOhtfgbl5MsKW6-30" value="create()" style="html=1;verticalAlign=bottom;endArrow=block;curved=0;rounded=0;entryX=0;entryY=0;entryDx=0;entryDy=5;" parent="U378pDZOhtfgbl5MsKW6-18" source="U378pDZOhtfgbl5MsKW6-26" target="U378pDZOhtfgbl5MsKW6-29" edge="1">
          <mxGeometry relative="1" as="geometry">
            <mxPoint x="415" y="508" as="sourcePoint" />
          </mxGeometry>
        </mxCell>
        <mxCell id="U378pDZOhtfgbl5MsKW6-31" value="Instance" style="html=1;verticalAlign=bottom;endArrow=open;dashed=1;endSize=8;curved=0;rounded=0;exitX=0;exitY=1;exitDx=0;exitDy=-5;" parent="U378pDZOhtfgbl5MsKW6-18" target="U378pDZOhtfgbl5MsKW6-26" edge="1">
          <mxGeometry relative="1" as="geometry">
            <mxPoint x="415" y="537" as="targetPoint" />
            <mxPoint x="485" y="537" as="sourcePoint" />
          </mxGeometry>
        </mxCell>
      </root>
    </mxGraphModel>
  </diagram>
</mxfile>
